<svg xmlns="http://www.w3.org/2000/svg" viewBox="0 0 480 580">
  <rect width="480" height="580" fill="#0A0A0A"/>

  <!-- T-Shirt body -->
  <path d="M185,52 C205,28 275,28 295,52 L390,74 L450,84 L442,162 L376,154 L376,542 L104,542 L104,154 L38,162 L30,84 L90,74 Z" fill="#1A1A1A"/>
  <path d="M185,52 C205,28 275,28 295,52 L390,74 L450,84 L442,162 L376,154 L376,542 L104,542 L104,154 L38,162 L30,84 L90,74 Z" fill="none" stroke="#2C2C2C" stroke-width="1.5"/>
  <!-- Collar -->
  <path d="M200,58 C218,40 262,40 280,58" fill="none" stroke="#282828" stroke-width="2.5"/>

  <!-- Glitch static bars graphic -->
  <rect x="148" y="178" width="184" height="5" fill="#B6FF00"/>
  <rect x="148" y="187" width="68" height="4" fill="#B6FF00"/>
  <rect x="232" y="187" width="100" height="4" fill="#B6FF00"/>
  <rect x="155" y="195" width="177" height="5" fill="#B6FF00"/>
  <rect x="162" y="204" width="44" height="4" fill="#B6FF00"/>
  <rect x="220" y="204" width="112" height="4" fill="#B6FF00"/>
  <rect x="148" y="212" width="184" height="6" fill="#B6FF00"/>
  <rect x="148" y="222" width="88" height="4" fill="#B6FF00"/>
  <rect x="252" y="222" width="80" height="4" fill="#B6FF00"/>
  <rect x="152" y="230" width="180" height="5" fill="#B6FF00"/>
  <rect x="148" y="239" width="50" height="4" fill="#B6FF00"/>
  <rect x="214" y="239" width="118" height="4" fill="#B6FF00"/>
  <rect x="148" y="247" width="184" height="5" fill="#B6FF00"/>
  <rect x="170" y="256" width="96" height="4" fill="#B6FF00"/>
  <rect x="280" y="256" width="52" height="4" fill="#B6FF00"/>
  <rect x="148" y="264" width="184" height="6" fill="#B6FF00"/>
  <rect x="148" y="274" width="72" height="4" fill="#B6FF00"/>
  <rect x="236" y="274" width="96" height="4" fill="#B6FF00"/>
  <rect x="155" y="282" width="177" height="5" fill="#B6FF00"/>

  <!-- Glitch colour artifacts -->
  <rect x="151" y="204" width="180" height="4" fill="#00D1FF" opacity="0.22"/>
  <rect x="145" y="247" width="187" height="5" fill="#FF006E" opacity="0.28"/>
  <rect x="153" y="264" width="182" height="6" fill="#00D1FF" opacity="0.15"/>

  <!-- STATIC NOISE text with glitch shadow -->
  <text x="243" y="330" text-anchor="middle" font-family="'Courier New',monospace" font-weight="900" font-size="21" fill="#FF006E" letter-spacing="4" opacity="0.55">STATIC NOISE</text>
  <text x="240" y="328" text-anchor="middle" font-family="'Courier New',monospace" font-weight="900" font-size="21" fill="#B6FF00" letter-spacing="4">STATIC NOISE</text>

  <text x="240" y="350" text-anchor="middle" font-family="'Courier New',monospace" font-size="10" fill="#B6FF00" letter-spacing="2" opacity="0.45">@glitchkid</text>

  <!-- Rank badge -->
  <rect x="206" y="500" width="68" height="20" fill="#B6FF00"/>
  <text x="240" y="514" text-anchor="middle" font-family="'Courier New',monospace" font-weight="900" font-size="10" fill="#0A0A0A" letter-spacing="3">RANK #1</text>
</svg>
